<?xml version="1.0" encoding="iso-8859-1"?>
<!-- Generator: Adobe Illustrator 19.0.0, SVG Export Plug-In . SVG Version: 6.00 Build 0)  -->
<svg version="1.1" id="Layer_1" xmlns="http://www.w3.org/2000/svg" xmlns:xlink="http://www.w3.org/1999/xlink" x="0px" y="0px"
	 viewBox="0 0 512.004 512.004" style="enable-background:new 0 0 512.004 512.004;" xml:space="preserve">
<g>
	<g>
		<g>
			<path d="M512.004,328.51c0-42.647-24.813-62.391-70.725-71.63c-4.015-0.808-8.191-1.551-13.104-2.352
				c-1.881-0.306-3.775-0.606-6.308-1.002c-3.078-0.479-4.664-0.726-6.064-0.946c-6.566-1.035-10.845-1.785-14.734-2.624
				c-4.751-1.024-12.398-4.483-22.446-10.065c-0.118-0.073-0.231-0.152-0.354-0.221c-6.518-3.625-13.865-8.035-21.902-13.127
				c3.951-9.322,2.134-20.509-5.464-28.106c-9.997-9.997-26.212-9.997-36.209,0l-0.066,0.066c-3.991-2.8-8.072-5.692-12.232-8.662
				c7.199-10.006,6.304-24.037-2.694-33.034c-9.997-9.997-26.212-9.997-36.209,0l-2.641,2.643
				c-10.908-8.152-21.198-15.961-30.103-22.809c-8.353-6.427-20.151-5.646-27.603,1.805l-17.527,17.527
				c-4.278,4.278-6.416,9.886-6.416,15.494c0,5.608,2.139,11.216,6.416,15.494l4.77,4.77c0.637,0.638,0.964,1.441,1.019,2.242
				c0.091,1.334-0.573,2.659-1.818,3.194c-1.075,0.462-2.14,0.898-3.202,1.326c-3.056,1.217-6.152,2.314-9.364,3.326
				c-0.274,0.086-0.534,0.199-0.795,0.311c-33.703,10.557-60.791,3.451-82.384-15.147c-5.108-4.4-9.463-9.119-13.054-13.822
				c-2.109-2.762-3.459-4.839-4.051-5.886c-1.25-2.212-3.42-3.753-5.921-4.202c-20.362-3.657-33.187,26.695-46.882,84.906
				c-4.085,17.362-7.799,35.93-11.078,54.492c-1.147,6.493-2.157,12.524-3.023,17.94c-0.43,2.693-0.748,4.744-0.95,6.091
				l-8.425,24.54c-0.643,1.873-0.615,3.912,0.081,5.767c1.634,4.358,6.456,9.283,15.567,13.448
				c13.12,5.998,33.215,9.455,61.885,9.455h374.272c2.468-0.137,5.617-0.506,9.596-1.263c6.605-1.257,13.223-3.194,19.482-5.988
				c18.815-8.397,30.665-22.802,30.653-43.819C511.998,328.597,512.004,328.554,512.004,328.51z M162.69,260.226
				c12.045-0.777,18.314-15.064,24.277-43.702c3.016-1.079,6.066-2.269,9.155-3.591c0.07-0.03,0.142-0.057,0.212-0.087
				c9.238-3.97,13.496-13.658,11.761-22.592c-0.745-3.839-2.59-7.54-5.632-10.587l-4.774-4.775
				c-0.945-0.945-1.417-2.185-1.417-3.425c0-1.24,0.473-2.48,1.417-3.425l17.527-17.527c1.396-1.396,3.577-1.54,5.13-0.346
				c8.428,6.482,18.074,13.808,28.316,21.475l-3.265,3.265c-2.006,2.006-3.603,4.266-4.804,6.673
				c-1.604,3.214-2.497,6.693-2.664,10.202c-0.12,2.503,0.129,5.02,0.741,7.465c0.958,3.832,2.817,7.482,5.57,10.622
				c0.084,0.096,0.163,0.195,0.249,0.29c0.017,0.018,0.035,0.036,0.051,0.054c0.276,0.304,0.56,0.605,0.853,0.899
				c0.938,0.938,1.931,1.789,2.969,2.551c0.055,0.04,0.111,0.076,0.166,0.116c0.292,0.211,0.585,0.419,0.883,0.616
				c1.763,1.165,3.64,2.087,5.581,2.77c0.012,0.004,0.023,0.009,0.035,0.013c0.287,0.101,0.578,0.19,0.868,0.28
				c0.105,0.032,0.208,0.07,0.313,0.101c0.163,0.048,0.328,0.088,0.492,0.133c0.234,0.064,0.467,0.132,0.703,0.19
				c0.016,0.004,0.032,0.007,0.047,0.01c8.387,2.031,17.599-0.227,24.147-6.775l7.243-7.243l1.601-1.6
				c4.057,2.905,8.038,5.732,11.942,8.482l-0.227,0.227l-5.558,5.558c-4.374,4.374-6.834,9.937-7.381,15.648
				c-0.703,7.342,1.757,14.931,7.381,20.554c9.997,9.997,26.203,9.997,36.2,0l12.814-12.807c6.106,3.896,11.774,7.388,17.017,10.475
				c-5.752,10.445-10.791,18.935-15.025,25.24c-2.7,4.02-5.017,7.065-6.848,9.019c-0.516,0.551-0.962,0.98-1.314,1.282
				c-36.614,2.634-96.689,17.461-129.803,34.023H69.041C81.86,292.473,126.765,262.555,162.69,260.226z M413.147,269.439
				c1.418,0.224,3.023,0.473,6.09,0.95c2.498,0.39,4.358,0.684,6.194,0.983c4.721,0.769,8.698,1.477,12.481,2.238
				c35.327,7.11,53.525,19.663,56.566,46.366H257.209c28.978-8.885,62.141-15.625,84.679-17.084
				c9.494-0.617,19.202-14.081,35.68-44.208c8.152,4.164,14.799,6.855,19.904,7.955
				C401.749,267.562,406.288,268.358,413.147,269.439z M338.836,210.506c3.332,3.332,3.332,8.741,0,12.073l-0.306,0.306
				c-0.039,0.038-0.082,0.071-0.12,0.11l-16.014,16.014l-1.666,1.665c-3.334,3.333-8.734,3.333-12.066,0.001
				c-1.666-1.666-2.499-3.848-2.499-6.031c0-2.183,0.833-4.365,2.499-6.031l3.594-3.596l9.385-9.385
				c0.013-0.013,0.024-0.028,0.037-0.042l5.084-5.086C330.096,207.174,335.504,207.174,338.836,210.506z M287.636,168.875
				c3.332,3.332,3.332,8.741,0,12.073l-4.092,4.09c-0.015,0.015-0.032,0.028-0.047,0.043l-8.547,8.547l-5.42,5.418
				c-3.333,3.333-8.734,3.333-12.066,0.001c-1.215-1.215-1.981-2.706-2.31-4.27c-0.122-0.581-0.189-1.172-0.189-1.763
				c0-2.183,0.833-4.366,2.499-6.031l18.101-18.109C278.896,165.543,284.304,165.543,287.636,168.875z M29.668,305.438
				c3.227-18.271,6.881-36.537,10.884-53.552c8.851-37.623,19.203-64.447,24.885-70.661c3.914,5.527,9.643,12.117,17.272,18.688
				c22.991,19.802,51.677,28.786,85.54,21.885c-1.486,5.984-3.001,10.963-4.53,14.829c-1.21,3.061-2.376,5.281-3.36,6.547
				c-0.046,0.059-0.065,0.095-0.071,0.122c-44.406,3.528-97.858,40.689-109.516,76.681H27.196
				C27.929,315.484,28.754,310.611,29.668,305.438z M474.389,356.874c-4.94,2.205-10.323,3.78-15.718,4.807
				c-3.222,0.613-5.672,0.9-6.935,0.979l-373.741-0.017c-26.412,0-44.168-3.055-54.789-7.91c-2.129-0.973-3.77-1.931-4.995-2.83
				l5.102-14.859h34.121h154.249h282.154C491.333,345.924,484.618,352.309,474.389,356.874z"/>
			<path d="M230.4,294.377c18.853,0,34.133-15.281,34.133-34.133c0-18.853-15.281-34.133-34.133-34.133
				s-34.133,15.281-34.133,34.133C196.267,279.097,211.547,294.377,230.4,294.377z M230.4,243.177
				c9.427,0,17.067,7.64,17.067,17.067s-7.64,17.067-17.067,17.067c-9.427,0-17.067-7.64-17.067-17.067
				S220.973,243.177,230.4,243.177z"/>
		</g>
	</g>
</g>
<g>
</g>
<g>
</g>
<g>
</g>
<g>
</g>
<g>
</g>
<g>
</g>
<g>
</g>
<g>
</g>
<g>
</g>
<g>
</g>
<g>
</g>
<g>
</g>
<g>
</g>
<g>
</g>
<g>
</g>
</svg>
